<?xml version="1.0" encoding="utf-8"?>
<!-- Generator: Adobe Illustrator 24.1.2, SVG Export Plug-In . SVG Version: 6.00 Build 0)  -->
<svg version="1.1" id="Слой_1" xmlns="http://www.w3.org/2000/svg" xmlns:xlink="http://www.w3.org/1999/xlink" x="0px" y="0px"
	 viewBox="0 0 1800 520" style="enable-background:new 0 0 1800 520;" xml:space="preserve">
<style type="text/css">
	.st0{fill:#111111;}
	.st1{fill:#C60C31;}
	.st2{fill:url(#SVGID_1_);}
</style>
<g>
	<path class="st0" d="M212,357.1h39l25.6-62.9H382l25.6,62.9h39L348,119h-37.4L212,357.1z M329.4,161.5l39,98.6h-78.2L329.4,161.5z"
		/>
	<path class="st0" d="M585.2,275.6c0,22.9,8.3,42.7,25.2,59.6c16.9,16.9,36.9,25.4,59.8,25.4c7.8,0,15.6-1.3,23.4-3.8
		c7.6-2.5,13.9-5.1,18.9-8.1c4.8-3,9.5-6.3,13.9-10.1c4.3-3.8,7.3-6.5,8.6-8.1c1.3-1.7,2.3-2.8,3-3.7L716,304.6l-5.1,6.3
		c-3.3,4-8.8,8.3-16.4,12.6c-7.6,4.3-15.6,6.5-24.2,6.5c-13.9,0-25.9-5.3-36-15.8c-10.1-10.6-15.1-23.4-15.1-38.7
		c0-15.3,5-28.1,15.1-38.5c10.1-10.6,22.1-15.8,36-15.8c8.6,0,16.6,2.2,24.2,6.6c7.6,4.3,12.5,7.8,14.8,10.5c2.3,2.7,4,4.8,5.1,6.6
		l22.1-22.1l-7.1-7.8c-4.8-5.5-12.6-11-23.6-16.4c-11-5.5-22.9-8.1-35.5-8.1c-22.9,0-42.8,8.5-59.8,25.4
		C593.5,232.9,585.2,252.6,585.2,275.6z"/>
	<path class="st0" d="M798.3,119h-33.9v238.1h33.9v-88.3c0-14.9,3.8-26.7,11.5-35c7.6-8.3,18.1-12.6,31-12.6
		c11.1,0,20.4,4,27.9,11.6c7.5,7.8,11.3,17.6,11.3,29.4v95.1h34v-95.1c0-21.9-6.1-39.2-18.4-52.1c-12.3-13-28.4-19.4-48-19.4
		c-5.6,0-11.3,0.7-16.8,2.2c-5.6,1.5-10.1,3.2-13.8,5c-3.7,1.8-7.1,3.8-10.3,6.1c-3.2,2.3-5.3,4-6.3,5c-1,1-1.8,1.7-2.2,2.2V119z"/>
	<path class="st0" d="M1105.8,287.3l1.8-16.9c0-22.9-7.6-41.8-22.9-57.1c-15.3-15.3-34.2-22.9-57.1-22.9c-22.9,0-42.5,8.3-58.8,24.6
		c-16.3,16.3-24.6,35.9-24.6,58.8c0,23.9,8.5,44.3,25.2,61.3c16.8,16.9,36.7,25.4,59.8,25.4c8.6,0,17.1-1.2,25.2-3.7
		c8.1-2.5,14.8-5.1,19.8-8.1c5.2-3,10-6.3,14.5-10.1c4.6-3.8,7.6-6.5,9-8.1c1.3-1.7,2.3-2.8,3-3.8l-22.1-22.1l-5.2,6.3
		c-3.3,4.2-9.1,8.3-17.4,12.6c-8.3,4.3-17.1,6.5-26.7,6.5c-13.1,0-24.4-4.2-34-12.6c-9.6-8.3-15.3-18.3-17.1-29.9H1105.8z
		 M1027.4,219.4c12.6,0,22.9,3.7,31.2,11c8.3,7.3,13.4,16.6,15.4,28.1h-94.5c3-11.5,8.6-20.8,16.9-28.1
		C1004.8,223.1,1015.1,219.4,1027.4,219.4z"/>
	<path class="st0" d="M1348.6,357.1h34v-95.1c0-23.2-5.5-41-16.4-53.3c-11-12.1-25.9-18.3-45-18.3c-7,0-13.6,1-20.1,3
		c-6.5,2-11.8,4.1-15.8,6.5c-4,2.3-7.6,5.1-11.1,8.3c-3.5,3.3-5.8,5.5-6.8,6.6c-1,1.3-1.8,2.2-2.3,2.8l-1.7-2.7
		c-1-1.7-2.8-4-5.5-6.8c-2.7-2.7-5.7-5.5-9.3-8.1c-3.5-2.7-8.1-5-14.1-6.8c-6-1.8-12.1-2.8-18.8-2.8c-8.1,0-15.9,2-23.6,5.6
		c-7.6,3.8-12.6,6.8-14.9,9.1c-2.3,2.3-4.3,4.1-5.6,5.6v-16.9h-34v163.2h34v-88.3c0-14.8,3.7-26.4,10.8-34.9
		c7.1-8.5,15.9-12.8,26.6-12.8c10.5,0,18.8,3.5,24.9,10.5c6.2,7,9.1,17.1,9.1,30.4v95.1h34v-88.3c0-14.8,3.7-26.4,10.8-34.9
		c7.1-8.5,15.9-12.8,26.6-12.8c10.5,0,18.8,3.5,24.9,10.5c6.2,7,9.1,17.1,9.1,30.4L1348.6,357.1z"/>
	<path class="st0" d="M1458.5,374c-6.3,15.9-15.9,23.9-28.9,23.9c-5.8,0-11.4-1.2-17.1-3.5v30.7l2.3,0.7c1.8,0.7,4.8,1.3,8.8,1.8
		c4,0.7,8.1,0.8,12.8,0.8c12.3,0,22.6-4,30.9-12.1c8.3-8,16.6-22.1,25.1-42.3l73.2-180.1h-35.7l-47.7,119l-47.7-119h-35.7
		l66.4,163.2L1458.5,374z"/>
	<path class="st1" d="M579.4,338.9L556,299l-17-29V143.1h2c6.6,0,12-5.4,12-12c0-6.6-5.4-12-12-12h-38c-6.6,0-12,5.4-12,12
		c0,6.6,5.4,12,12,12h2V270l-17,29l-23.4,39.9c-4.7,8,1.1,18.1,10.4,18.1H522h47.1C578.3,357,584.1,346.9,579.4,338.9z"/>
	
		<linearGradient id="SVGID_1_" gradientUnits="userSpaceOnUse" x1="522.5" y1="241" x2="522.5" y2="177" gradientTransform="matrix(1 0 0 -1 0 522)">
		<stop  offset="0.2044" style="stop-color:#E08B09"/>
		<stop  offset="1" style="stop-color:#C60C31"/>
	</linearGradient>
	<path class="st2" d="M526.5,345c11.9-2.4,20.5-11.9,20.5-23.8c0-11-5.5-21.3-16.2-28c2.5,7-0.9,13.4-4,15.5
		c0-8.8-3.1-22.2-13.5-27.7c1.5,19.2-15.3,25.9-15.3,42.7c0,11.6,9.5,19.5,20.2,21.3H526.5z"/>
</g>
</svg>
