<?xml version="1.0" encoding="utf-8"?>
<!-- Generator: Adobe Illustrator 24.1.2, SVG Export Plug-In . SVG Version: 6.00 Build 0)  -->
<svg version="1.1" id="Слой_1" xmlns="http://www.w3.org/2000/svg" xmlns:xlink="http://www.w3.org/1999/xlink" x="0px" y="0px"
	 viewBox="0 0 1800 520" style="enable-background:new 0 0 1800 520;" xml:space="preserve">
<style type="text/css">
	.st0{fill:#111111;}
	.st1{fill-rule:evenodd;clip-rule:evenodd;fill:#111111;}
	.st2{fill:#C60C31;}
	.st3{fill:url(#SVGID_1_);}
</style>
<g>
	<path class="st0" d="M1407.2,194c11.3,0,16.9-6.8,16.9-20.4v-33.9h30.5V194h34v30.5h-34v84.4c0,6.1,1.9,11,5.8,14.9
		c3.9,3.9,8.7,5.8,14.6,5.8c2.5,0,5.2-0.3,8-0.8c2.8-0.6,5-1.2,6.5-1.8l2.5-0.7v30.5c-6.7,2.2-14.7,3.3-23.8,3.3
		c-31.7,0-47.5-16.9-47.4-50.8v-84.8h-30.7V194H1407.2z"/>
	<path class="st0" d="M1367.4,210.2l2.2,2.5l-22,22c-0.9-0.9-2.2-2.1-3.9-3.7c-1.7-1.6-5.2-3.6-10.6-6.1c-5.4-2.5-10.7-3.7-16.2-3.7
		c-7.3,0-13.1,1.7-17.3,5.1c-4.2,3.4-6.4,7.3-6.4,11.8c0,4.7,2.1,8.7,6.1,11.9c4.1,3.2,9.2,5.6,15.4,7.3c6.2,1.7,12.8,3.7,20,6.2
		c7.1,2.5,13.8,5.3,20,8.4c6.2,3.1,11.4,7.8,15.5,14.3c4.1,6.4,6.1,14.1,6.1,23.2c0,14-5.7,26-17,35.9c-11.3,9.9-26,14.9-44.2,14.9
		c-7.9,0-15.5-1-22.8-3c-7.2-2-13.2-4.4-17.8-7.1c-4.7-2.8-8.7-5.5-12.2-8.4c-3.5-2.8-6-5.2-7.5-7.2l-2.5-3.1l22-22.1
		c1.1,1.6,2.7,3.5,4.9,5.8c2.2,2.3,6.8,5.3,13.9,9c7.1,3.7,14.4,5.5,21.9,5.5c9.1,0,15.9-1.8,20.4-5.5c4.5-3.7,6.8-8.6,6.8-14.8
		c0-4.7-2.1-8.7-6.1-11.8c-4.1-3.1-9.2-5.6-15.4-7.3c-6.2-1.7-12.8-3.8-20-6.3c-7.1-2.5-13.8-5.3-20-8.3c-6.2-3-11.4-7.8-15.5-14.2
		c-4.1-6.5-6.1-14.2-6.1-23.3c0-12.5,5.5-23.5,16.5-33.1c11-9.6,24.7-14.4,41.2-14.4c6.5,0,12.8,0.8,19,2.2c6.1,1.5,11.1,3.3,15,5.5
		c3.8,2.2,7.3,4.4,10.2,6.6S1366,208.9,1367.4,210.2z"/>
	<path class="st0" d="M1114.2,397.6c12.9-0.1,22.5-8.1,28.8-23.8l6.8-16.9L1083.6,194h35.6l47.5,118.8l47.5-118.8h35.6l-73.1,179.7
		c-8.4,20.1-16.7,34.2-24.9,42.2c-8.2,8.1-18.5,12.1-30.9,12.1c-4.5,0-8.8-0.3-12.8-0.8c-4-0.5-6.9-1.2-8.8-1.8l-2.3-0.7v-30.6
		C1102.8,396.3,1108.4,397.5,1114.2,397.6z"/>
	<path class="st0" d="M1026.2,119.3h33.8v237.5h-33.8V119.3z"/>
	<path class="st0" d="M723.7,194c11.3,0,16.9-6.8,16.9-20.4h0v-33.9h30.5V194h34v30.5h-34v84.4c0,6.1,1.9,11,5.8,14.9
		c3.9,3.9,8.7,5.8,14.6,5.8c2.5,0,5.2-0.3,8-0.8c2.8-0.6,5-1.2,6.5-1.8l2.5-0.7v30.5c-6.7,2.2-14.7,3.3-23.8,3.3
		c-31.7,0-47.5-16.9-47.4-50.8v-84.8h-30.6V194H723.7z"/>
	<path class="st0" d="M345.1,151.5c24.1-23.6,53.9-35.5,89.5-35.5c12,0,23.6,1.6,34.6,4.7c11.1,3.1,20.2,7,27.4,11.6
		c7.2,4.5,13.6,9,19,13.4c5.4,4.4,9.4,8.2,11.9,11.4l3.6,4.6l-23.7,23.8l0-0.1c-0.7-0.9-1.6-2.1-2.9-3.7c-1.3-1.6-4.2-4.5-8.7-8.7
		c-4.5-4.2-9.4-7.8-14.6-10.9c-5.2-3-11.9-5.9-20.3-8.4c-8.3-2.6-17.1-3.9-26.4-3.9c-24.6,0-45.5,8.5-62.6,25.6
		c-17.1,17.1-25.7,37.9-25.7,62.5c0,24.6,8.5,45.5,25.6,62.6c17.1,17.1,38,25.7,62.7,25.7c9.3,0,18.1-1.3,26.6-3.9
		c8.5-2.6,15.5-5.7,21-9.4c5.6-3.6,10.5-7.3,14.7-10.8c4.3-3.6,7.4-6.7,9.5-9.2l2.6-4.1l23.8,23.8c-0.9,1.3-2.2,3.1-4.1,5.2
		c-1.8,2.2-5.9,5.9-12.1,11.4c-6.2,5.4-12.9,10.2-19.9,14.4c-7,4.2-16.2,8-27.5,11.4c-11.3,3.4-22.9,5-34.9,5
		c-35.6,0-65.4-11.8-89.5-35.5C321,301.1,309,272.2,309,238.1C309,204,321,175.1,345.1,151.5z"/>
	<path class="st1" d="M851.2,215.4c15.8-16.7,34.5-24.9,56-24.9c6.2,0,12.2,0.8,18.1,2.3c5.7,1.4,10.7,3.1,14.7,5.4
		c4,2,7.6,4.2,10.7,6.5c3.1,2.3,5.4,4,6.8,5.4l2.3,2.5v-18.7h33.9v162.8h-33.9v-18.7c-1.3,1.5-3.2,3.3-5.6,5.4
		c-0.3,0.3-0.6,0.5-0.9,0.8c-2.8,2.5-9,5.9-18.1,9.9c-9,4-18.4,5.9-28,5.9c-21.5,0-40.1-8.5-56-24.9c-15.8-16.4-23.7-36.5-23.7-59.9
		C827.4,251.9,835.3,232.1,851.2,215.4z M876.3,313.8c9.9,10.5,21.2,15.8,34.2,15.8c13,0,24.3-5.1,34.2-15.8
		c9.9-10.7,15-23.5,15-38.4c0-15-5.1-28-15-38.4c-9.9-10.5-21.2-15.8-34.2-15.8c-12.7,0-24.3,5.1-34.2,15.8
		c-9.9,10.7-15,23.5-15,38.4C861.3,290.3,866.4,303.1,876.3,313.8z"/>
	<path class="st2" d="M714.5,339.2l-37.6-65.1l-22.4-38.8c-1.1-1.8-1.6-3.9-1.6-6V194h0c6.6,0,12-5.4,12-12c0-6.6-5.4-12-12-12h-48
		c-6.6,0-12,5.4-12,12c0,6.6,5.4,12,12,12v35.3c0,2.1-0.6,4.2-1.6,6L581,274.1l-37.6,65.1c-4.6,8,1.2,18,10.4,18H629h75.2
		C713.4,357.2,719.2,347.2,714.5,339.2z"/>
	
		<linearGradient id="SVGID_1_" gradientUnits="userSpaceOnUse" x1="629.5" y1="273" x2="629.5" y2="177" gradientTransform="matrix(1 0 0 -1 0 522)">
		<stop  offset="0.2044" style="stop-color:#E08B09"/>
		<stop  offset="1" style="stop-color:#C60C31"/>
	</linearGradient>
	<path class="st3" d="M635.4,345c17.8-3.7,30.6-17.8,30.6-35.7c0-16.5-8.2-32-24.2-42.1c3.7,10.5-1.4,20.1-5.9,23.3
		c0-13.3-4.6-33.4-20.1-41.6c2.3,28.8-22.8,38.9-22.8,64c0,17.4,14.1,29.3,30.1,32H635.4z"/>
</g>
</svg>
