<?xml version="1.0" encoding="utf-8"?>
<!-- Generator: Adobe Illustrator 24.1.2, SVG Export Plug-In . SVG Version: 6.00 Build 0)  -->
<svg version="1.1" id="Слой_1" xmlns="http://www.w3.org/2000/svg" xmlns:xlink="http://www.w3.org/1999/xlink" x="0px" y="0px"
	 viewBox="0 0 400 400" style="enable-background:new 0 0 400 400;" xml:space="preserve">
<style type="text/css">
	.st0{fill:#C60C31;}
	.st1{fill:url(#SVGID_1_);}
</style>
<g>
	<path class="st0" d="M285.5,269.2l-37.6-65.1l-22.4-38.8c-1.1-1.8-1.6-3.9-1.6-6V124h0c6.6,0,12-5.4,12-12s-5.4-12-12-12h-48
		c-6.6,0-12,5.4-12,12c0,6.6,5.4,12,12,12v35.3c0,2.1-0.6,4.2-1.6,6L152,204.1l-37.6,65.1c-4.6,8,1.2,18,10.4,18H200h75.2
		C284.4,287.2,290.2,277.2,285.5,269.2z"/>
	
		<linearGradient id="SVGID_1_" gradientUnits="userSpaceOnUse" x1="200.5" y1="223" x2="200.5" y2="127" gradientTransform="matrix(1 0 0 -1 0 402)">
		<stop  offset="0.2044" style="stop-color:#E08B09"/>
		<stop  offset="1" style="stop-color:#C60C31"/>
	</linearGradient>
	<path class="st1" d="M206.4,275c17.8-3.7,30.6-17.8,30.6-35.7c0-16.5-8.2-32-24.2-42.1c3.6,10.5-1.4,20.1-5.9,23.3
		c0-13.3-4.6-33.4-20.1-41.6c2.3,28.8-22.8,38.9-22.8,64c0,17.4,14.1,29.3,30.1,32H206.4z"/>
</g>
</svg>
