<?xml version="1.0" encoding="utf-8"?>
<!-- Generator: Adobe Illustrator 24.1.2, SVG Export Plug-In . SVG Version: 6.00 Build 0)  -->
<svg version="1.1" id="Слой_1" xmlns="http://www.w3.org/2000/svg" xmlns:xlink="http://www.w3.org/1999/xlink" x="0px" y="0px"
	 viewBox="0 0 1800 520" style="enable-background:new 0 0 1800 520;" xml:space="preserve">
<style type="text/css">
	.st0{fill:#C60C31;}
	.st1{fill-rule:evenodd;clip-rule:evenodd;fill:#111111;}
	.st2{fill:#111111;}
	.st3{fill:url(#SVGID_1_);}
</style>
<g>
	<path class="st0" d="M813.5,339.2l-37.6-65.1l-22.4-38.8c-1.1-1.8-1.6-3.9-1.6-6V194h0c6.6,0,12-5.4,12-12c0-6.6-5.4-12-12-12h-48
		c-6.6,0-12,5.4-12,12c0,6.6,5.4,12,12,12v35.3c0,2.1-0.6,4.2-1.6,6L680,274.1l-37.6,65.1c-4.6,8,1.2,18,10.4,18H728h75.2
		C812.4,357.2,818.2,347.2,813.5,339.2z"/>
	<path class="st1" d="M305.4,357H268V118.9h100.3c21.9,0,40.2,7.1,54.8,21.1c14.4,14.1,21.7,31.5,21.7,52.1c0,9.8-1.7,18.9-5,27.4
		c-3.3,8.5-7.3,15.1-12,19.9c-4.6,5-9.3,9.1-13.9,12.8c-4.6,3.7-8.6,6.1-12,7.5l-4.8,2.2l54.5,95.1h-40.8l-51-91.8h-54.5V357z
		 M396,220c7.5-7.5,11.3-16.8,11.3-27.9c0-11.1-3.8-20.4-11.3-27.9c-7.5-7.5-16.8-11.3-27.7-11.3h-62.9v78.2h62.9
		C379.3,231.2,388.6,227.5,396,220z"/>
	<path class="st1" d="M629.2,270.3l-1.8,16.9H499.7c1.8,11.6,7.5,21.6,17.1,29.9c9.6,8.5,20.9,12.6,34,12.6c9.6,0,18.4-2.2,26.7-6.5
		c8.3-4.3,14.1-8.5,17.4-12.6l5.1-6.3l22.1,22.1c-0.5,0.7-1.1,1.5-2,2.6l0,0c-0.3,0.4-0.6,0.8-1,1.2c-1.3,1.7-4.3,4.3-9,8.1
		c-4.5,3.8-9.3,7.1-14.4,10.1c-5,3-11.6,5.6-19.8,8.1s-16.6,3.7-25.2,3.7c-23.1,0-43-8.5-59.8-25.4c-16.8-16.9-25.2-37.4-25.2-61.3
		c0-22.9,8.3-42.5,24.6-58.8c16.3-16.3,35.9-24.6,58.8-24.6c22.9,0,41.8,7.6,57.1,22.9C621.6,228.5,629.2,247.4,629.2,270.3z
		 M580.2,230.3c-8.3-7.3-18.6-11-31.2-11c-12.3,0-22.6,3.7-30.9,11c-8.3,7.3-13.9,16.6-16.9,28.1h94.5
		C593.7,246.9,588.5,237.6,580.2,230.3z"/>
	<path class="st2" d="M1160.2,193.8h-34V357h34V193.8z"/>
	<path class="st2" d="M1163.7,142.8c0-5.8-2-10.6-5.8-14.4c-4-4-8.8-5.8-14.6-5.8c-6,0-10.8,1.8-14.6,5.8c-4,3.8-5.8,8.6-5.8,14.4
		c0,6,1.8,10.8,5.8,14.6c3.8,4,8.6,5.8,14.6,5.8c5.8,0,10.6-1.8,14.6-5.8C1161.7,153.6,1163.7,148.8,1163.7,142.8z"/>
	<path class="st1" d="M1214.6,335.1c-16.9-16.9-25.2-36.7-25.2-59.6s8.3-42.8,25.2-59.8c16.9-16.9,36.9-25.4,59.8-25.4
		s42.7,8.5,59.6,25.4c16.9,16.9,25.4,36.9,25.4,59.8s-8.5,42.7-25.4,59.6c-16.9,16.9-36.7,25.4-59.6,25.4S1231.6,352,1214.6,335.1z
		 M1310.2,314c10-10.5,15.1-23.2,15.1-38.5c0-15.3-5.1-28.1-15.1-38.7c-10.1-10.5-22.1-15.8-35.9-15.8c-14,0-25.9,5.3-36,15.8
		c-10.1,10.6-15.1,23.4-15.1,38.7c0,15.3,5,28.1,15.1,38.5c10.1,10.6,22.1,15.8,36,15.8C1288.2,329.8,1300.1,324.6,1310.2,314z"/>
	<path class="st2" d="M1416.8,193.8h-34V357h34v-88.3c0-14.9,3.8-26.7,11.5-35c7.6-8.3,18.1-12.6,31-12.6c11,0,20.3,4,27.7,11.6
		c7.5,7.8,11.3,17.6,11.3,29.4v95.1h34V262c0-21.9-6.1-39.2-18.4-52.1c-12.3-12.9-28.2-19.4-48-19.4c-5.6,0-11.1,0.7-16.8,2.2
		c-5.7,1.5-10.1,3.2-13.8,5c-3.7,1.8-7,3.8-10.3,6.1c-3.1,2.3-5.3,4-6.3,5l-2.2,2.2L1416.8,193.8z"/>
	<path class="st2" d="M1021,173c0,13.6-5.6,20.4-16.9,20.4H987V224h30.7v85c-0.2,34,15.6,51,47.3,51c9.3,0,17.3-1,23.9-3.3v-30.5
		l-2.5,0.7c-1.5,0.7-3.6,1.3-6.5,1.8c-2.8,0.7-5.5,0.8-8.1,0.8c-5.8,0-10.6-1.8-14.4-5.8c-4-3.8-5.8-8.8-5.8-14.9V224h34v-30.5h-34
		V139H1021V173z"/>
	<path class="st2" d="M843.2,334.6C826.3,317.7,818,297.9,818,275s8.3-42.7,25.2-59.6c16.9-16.9,36.9-25.4,59.8-25.4
		c12.6,0,24.6,2.7,35.5,8.1c11,5.5,18.8,11,23.6,16.4l7.1,7.8l-22.1,22.1c-1.2-1.8-2.8-4-5.1-6.6c-2.3-2.7-7.1-6.1-14.8-10.5
		c-7.6-4.5-15.6-6.6-24.2-6.6c-13.9,0-25.9,5.1-36,15.8c-10.1,10.5-15.1,23.2-15.1,38.5s5,28.1,15.1,38.7
		c10.1,10.5,22.1,15.8,36,15.8c8.6,0,16.6-2.2,24.2-6.5c7.6-4.3,13.1-8.6,16.4-12.6l5.1-6.3l22.1,22.1c-0.3,0.3-0.6,0.7-1,1.2
		c-0.5,0.7-1.2,1.5-2,2.4c-1.3,1.7-4.3,4.3-8.6,8.1c-4.5,3.8-9.1,7.1-13.9,10.1c-5,3-11.3,5.6-18.9,8.1c-7.8,2.5-15.6,3.8-23.4,3.8
		C880.1,360,860.2,351.5,843.2,334.6z"/>
	
		<linearGradient id="SVGID_1_" gradientUnits="userSpaceOnUse" x1="728.5" y1="273" x2="728.5" y2="177" gradientTransform="matrix(1 0 0 -1 0 522)">
		<stop  offset="0.2044" style="stop-color:#E08B09"/>
		<stop  offset="1" style="stop-color:#C60C31"/>
	</linearGradient>
	<path class="st3" d="M734.4,345c17.8-3.7,30.6-17.8,30.6-35.7c0-16.5-8.2-32-24.2-42.1c3.7,10.5-1.4,20.1-5.9,23.3
		c0-13.3-4.6-33.4-20.1-41.6c2.3,28.8-22.8,38.9-22.8,64c0,17.4,14.1,29.3,30.1,32H734.4z"/>
</g>
</svg>
